<svg xmlns="http://www.w3.org/2000/svg" xmlns:xlink="http://www.w3.org/1999/xlink" width="500" zoomAndPan="magnify" viewBox="0 0 375 374.999991" height="500" preserveAspectRatio="xMidYMid meet" version="1.0"><defs><clipPath id="3e51bbca28"><path d="M 10.960938 10.960938 L 364.039062 10.960938 L 364.039062 364.039062 L 10.960938 364.039062 Z M 10.960938 10.960938 " clip-rule="nonzero"/></clipPath><clipPath id="bf3f548eca"><path d="M 187.5 10.960938 C 90 10.960938 10.960938 90 10.960938 187.5 C 10.960938 285 90 364.039062 187.5 364.039062 C 285 364.039062 364.039062 285 364.039062 187.5 C 364.039062 90 285 10.960938 187.5 10.960938 Z M 187.5 10.960938 " clip-rule="nonzero"/></clipPath><clipPath id="ca3f6dfbbb"><path d="M 0.960938 0.960938 L 354.039062 0.960938 L 354.039062 354.039062 L 0.960938 354.039062 Z M 0.960938 0.960938 " clip-rule="nonzero"/></clipPath><clipPath id="ac8b94af19"><path d="M 177.5 0.960938 C 80 0.960938 0.960938 80 0.960938 177.5 C 0.960938 275 80 354.039062 177.5 354.039062 C 275 354.039062 354.039062 275 354.039062 177.5 C 354.039062 80 275 0.960938 177.5 0.960938 Z M 177.5 0.960938 " clip-rule="nonzero"/></clipPath><clipPath id="89a1c02b4e"><rect x="0" width="355" y="0" height="355"/></clipPath><clipPath id="c0322afc19"><path d="M 50.554688 198.257812 L 100.457031 198.257812 L 100.457031 248.160156 L 50.554688 248.160156 Z M 50.554688 198.257812 " clip-rule="nonzero"/></clipPath><clipPath id="44123cc16a"><path d="M 75.503906 198.257812 C 61.726562 198.257812 50.554688 209.425781 50.554688 223.207031 C 50.554688 236.988281 61.726562 248.160156 75.503906 248.160156 C 89.285156 248.160156 100.457031 236.988281 100.457031 223.207031 C 100.457031 209.425781 89.285156 198.257812 75.503906 198.257812 Z M 75.503906 198.257812 " clip-rule="nonzero"/></clipPath><clipPath id="c6b0b0bbad"><path d="M 0.554688 0.257812 L 50.457031 0.257812 L 50.457031 50.160156 L 0.554688 50.160156 Z M 0.554688 0.257812 " clip-rule="nonzero"/></clipPath><clipPath id="50e28fc423"><path d="M 25.503906 0.257812 C 11.726562 0.257812 0.554688 11.425781 0.554688 25.207031 C 0.554688 38.988281 11.726562 50.160156 25.503906 50.160156 C 39.285156 50.160156 50.457031 38.988281 50.457031 25.207031 C 50.457031 11.425781 39.285156 0.257812 25.503906 0.257812 Z M 25.503906 0.257812 " clip-rule="nonzero"/></clipPath><clipPath id="87c75bac40"><rect x="0" width="51" y="0" height="51"/></clipPath><clipPath id="ab8d535219"><path d="M 274.542969 198.257812 L 324.445312 198.257812 L 324.445312 248.160156 L 274.542969 248.160156 Z M 274.542969 198.257812 " clip-rule="nonzero"/></clipPath><clipPath id="d56d911170"><path d="M 299.496094 198.257812 C 285.714844 198.257812 274.542969 209.425781 274.542969 223.207031 C 274.542969 236.988281 285.714844 248.160156 299.496094 248.160156 C 313.273438 248.160156 324.445312 236.988281 324.445312 223.207031 C 324.445312 209.425781 313.273438 198.257812 299.496094 198.257812 Z M 299.496094 198.257812 " clip-rule="nonzero"/></clipPath><clipPath id="00221bf383"><path d="M 0.542969 0.257812 L 50.445312 0.257812 L 50.445312 50.160156 L 0.542969 50.160156 Z M 0.542969 0.257812 " clip-rule="nonzero"/></clipPath><clipPath id="bf0db10776"><path d="M 25.496094 0.257812 C 11.714844 0.257812 0.542969 11.425781 0.542969 25.207031 C 0.542969 38.988281 11.714844 50.160156 25.496094 50.160156 C 39.273438 50.160156 50.445312 38.988281 50.445312 25.207031 C 50.445312 11.425781 39.273438 0.257812 25.496094 0.257812 Z M 25.496094 0.257812 " clip-rule="nonzero"/></clipPath><clipPath id="adb22dbc8c"><rect x="0" width="51" y="0" height="51"/></clipPath><clipPath id="0b67ea8286"><path d="M 90.292969 159.316406 L 146.660156 159.316406 L 146.660156 215.683594 L 90.292969 215.683594 Z M 90.292969 159.316406 " clip-rule="nonzero"/></clipPath><clipPath id="36af012a06"><path d="M 118.476562 159.316406 C 102.910156 159.316406 90.292969 171.933594 90.292969 187.5 C 90.292969 203.066406 102.910156 215.683594 118.476562 215.683594 C 134.039062 215.683594 146.660156 203.066406 146.660156 187.5 C 146.660156 171.933594 134.039062 159.316406 118.476562 159.316406 Z M 118.476562 159.316406 " clip-rule="nonzero"/></clipPath><clipPath id="bd9902c85f"><path d="M 0.292969 0.316406 L 56.660156 0.316406 L 56.660156 56.683594 L 0.292969 56.683594 Z M 0.292969 0.316406 " clip-rule="nonzero"/></clipPath><clipPath id="467c6d8f9c"><path d="M 28.476562 0.316406 C 12.910156 0.316406 0.292969 12.933594 0.292969 28.5 C 0.292969 44.066406 12.910156 56.683594 28.476562 56.683594 C 44.039062 56.683594 56.660156 44.066406 56.660156 28.5 C 56.660156 12.933594 44.039062 0.316406 28.476562 0.316406 Z M 28.476562 0.316406 " clip-rule="nonzero"/></clipPath><clipPath id="1974d345d1"><rect x="0" width="57" y="0" height="57"/></clipPath><clipPath id="407595a061"><path d="M 93.230469 159.316406 L 146.660156 159.316406 L 146.660156 212.746094 L 93.230469 212.746094 Z M 93.230469 159.316406 " clip-rule="nonzero"/></clipPath><clipPath id="fe07df6290"><path d="M 119.945312 159.316406 C 105.191406 159.316406 93.230469 171.277344 93.230469 186.03125 C 93.230469 200.785156 105.191406 212.746094 119.945312 212.746094 C 134.699219 212.746094 146.660156 200.785156 146.660156 186.03125 C 146.660156 171.277344 134.699219 159.316406 119.945312 159.316406 Z M 119.945312 159.316406 " clip-rule="nonzero"/></clipPath><clipPath id="25a33a6c8f"><path d="M 0.230469 0.316406 L 53.660156 0.316406 L 53.660156 53.746094 L 0.230469 53.746094 Z M 0.230469 0.316406 " clip-rule="nonzero"/></clipPath><clipPath id="573d75ae9a"><path d="M 26.945312 0.316406 C 12.191406 0.316406 0.230469 12.277344 0.230469 27.03125 C 0.230469 41.785156 12.191406 53.746094 26.945312 53.746094 C 41.699219 53.746094 53.660156 41.785156 53.660156 27.03125 C 53.660156 12.277344 41.699219 0.316406 26.945312 0.316406 Z M 26.945312 0.316406 " clip-rule="nonzero"/></clipPath><clipPath id="49842e9875"><rect x="0" width="54" y="0" height="54"/></clipPath><clipPath id="103eafadc6"><path d="M 230.292969 159.316406 L 286.660156 159.316406 L 286.660156 215.683594 L 230.292969 215.683594 Z M 230.292969 159.316406 " clip-rule="nonzero"/></clipPath><clipPath id="c834f7dea2"><path d="M 258.476562 159.316406 C 242.914062 159.316406 230.292969 171.933594 230.292969 187.5 C 230.292969 203.066406 242.914062 215.683594 258.476562 215.683594 C 274.042969 215.683594 286.660156 203.066406 286.660156 187.5 C 286.660156 171.933594 274.042969 159.316406 258.476562 159.316406 Z M 258.476562 159.316406 " clip-rule="nonzero"/></clipPath><clipPath id="0b7e657adc"><path d="M 0.292969 0.316406 L 56.660156 0.316406 L 56.660156 56.683594 L 0.292969 56.683594 Z M 0.292969 0.316406 " clip-rule="nonzero"/></clipPath><clipPath id="fd6b0085b7"><path d="M 28.476562 0.316406 C 12.914062 0.316406 0.292969 12.933594 0.292969 28.5 C 0.292969 44.066406 12.914062 56.683594 28.476562 56.683594 C 44.042969 56.683594 56.660156 44.066406 56.660156 28.5 C 56.660156 12.933594 44.042969 0.316406 28.476562 0.316406 Z M 28.476562 0.316406 " clip-rule="nonzero"/></clipPath><clipPath id="8eb4891d28"><rect x="0" width="57" y="0" height="57"/></clipPath><clipPath id="982af0fe1d"><path d="M 230.292969 159.316406 L 283.722656 159.316406 L 283.722656 212.746094 L 230.292969 212.746094 Z M 230.292969 159.316406 " clip-rule="nonzero"/></clipPath><clipPath id="378ffeec40"><path d="M 257.007812 159.316406 C 242.253906 159.316406 230.292969 171.277344 230.292969 186.03125 C 230.292969 200.785156 242.253906 212.746094 257.007812 212.746094 C 271.761719 212.746094 283.722656 200.785156 283.722656 186.03125 C 283.722656 171.277344 271.761719 159.316406 257.007812 159.316406 Z M 257.007812 159.316406 " clip-rule="nonzero"/></clipPath><clipPath id="525575b996"><path d="M 0.292969 0.316406 L 53.722656 0.316406 L 53.722656 53.746094 L 0.292969 53.746094 Z M 0.292969 0.316406 " clip-rule="nonzero"/></clipPath><clipPath id="24c2f16ffd"><path d="M 27.007812 0.316406 C 12.253906 0.316406 0.292969 12.277344 0.292969 27.03125 C 0.292969 41.785156 12.253906 53.746094 27.007812 53.746094 C 41.761719 53.746094 53.722656 41.785156 53.722656 27.03125 C 53.722656 12.277344 41.761719 0.316406 27.007812 0.316406 Z M 27.007812 0.316406 " clip-rule="nonzero"/></clipPath><clipPath id="8058df055f"><rect x="0" width="54" y="0" height="54"/></clipPath><clipPath id="f9fcb6d67e"><path d="M 215.335938 248.179688 L 230.292969 248.179688 L 230.292969 263.136719 L 215.335938 263.136719 Z M 215.335938 248.179688 " clip-rule="nonzero"/></clipPath><clipPath id="1e17180a07"><path d="M 222.816406 248.179688 C 218.683594 248.179688 215.335938 251.527344 215.335938 255.660156 C 215.335938 259.789062 218.683594 263.136719 222.816406 263.136719 C 226.945312 263.136719 230.292969 259.789062 230.292969 255.660156 C 230.292969 251.527344 226.945312 248.179688 222.816406 248.179688 Z M 222.816406 248.179688 " clip-rule="nonzero"/></clipPath><clipPath id="118cd0eb99"><path d="M 0.335938 0.179688 L 15.292969 0.179688 L 15.292969 15.136719 L 0.335938 15.136719 Z M 0.335938 0.179688 " clip-rule="nonzero"/></clipPath><clipPath id="1db453fa6a"><path d="M 7.816406 0.179688 C 3.683594 0.179688 0.335938 3.527344 0.335938 7.660156 C 0.335938 11.789062 3.683594 15.136719 7.816406 15.136719 C 11.945312 15.136719 15.292969 11.789062 15.292969 7.660156 C 15.292969 3.527344 11.945312 0.179688 7.816406 0.179688 Z M 7.816406 0.179688 " clip-rule="nonzero"/></clipPath><clipPath id="5ca0fd83d6"><rect x="0" width="16" y="0" height="16"/></clipPath><clipPath id="bd85eebef0"><path d="M 144.707031 248.179688 L 159.664062 248.179688 L 159.664062 263.136719 L 144.707031 263.136719 Z M 144.707031 248.179688 " clip-rule="nonzero"/></clipPath><clipPath id="d80a4b8459"><path d="M 152.183594 248.179688 C 148.054688 248.179688 144.707031 251.527344 144.707031 255.660156 C 144.707031 259.789062 148.054688 263.136719 152.183594 263.136719 C 156.316406 263.136719 159.664062 259.789062 159.664062 255.660156 C 159.664062 251.527344 156.316406 248.179688 152.183594 248.179688 Z M 152.183594 248.179688 " clip-rule="nonzero"/></clipPath><clipPath id="7e70497b7a"><path d="M 0.707031 0.179688 L 15.664062 0.179688 L 15.664062 15.136719 L 0.707031 15.136719 Z M 0.707031 0.179688 " clip-rule="nonzero"/></clipPath><clipPath id="3ff55b2106"><path d="M 8.183594 0.179688 C 4.054688 0.179688 0.707031 3.527344 0.707031 7.660156 C 0.707031 11.789062 4.054688 15.136719 8.183594 15.136719 C 12.316406 15.136719 15.664062 11.789062 15.664062 7.660156 C 15.664062 3.527344 12.316406 0.179688 8.183594 0.179688 Z M 8.183594 0.179688 " clip-rule="nonzero"/></clipPath><clipPath id="9068c390c4"><rect x="0" width="16" y="0" height="16"/></clipPath></defs><g clip-path="url(#3e51bbca28)"><g clip-path="url(#bf3f548eca)"><g transform="matrix(1, 0, 0, 1, 10, 10)"><g clip-path="url(#89a1c02b4e)"><g clip-path="url(#ca3f6dfbbb)"><g clip-path="url(#ac8b94af19)"><path fill="#fee8cc" d="M 0.960938 0.960938 L 354.039062 0.960938 L 354.039062 354.039062 L 0.960938 354.039062 Z M 0.960938 0.960938 " fill-opacity="1" fill-rule="nonzero"/></g></g></g></g></g></g><g clip-path="url(#c0322afc19)"><g clip-path="url(#44123cc16a)"><g transform="matrix(1, 0, 0, 1, 50, 198)"><g clip-path="url(#87c75bac40)"><g clip-path="url(#c6b0b0bbad)"><g clip-path="url(#50e28fc423)"><path fill="#fdd9b0" d="M 0.554688 0.257812 L 50.457031 0.257812 L 50.457031 50.160156 L 0.554688 50.160156 Z M 0.554688 0.257812 " fill-opacity="1" fill-rule="nonzero"/></g></g></g></g></g></g><g clip-path="url(#ab8d535219)"><g clip-path="url(#d56d911170)"><g transform="matrix(1, 0, 0, 1, 274, 198)"><g clip-path="url(#adb22dbc8c)"><g clip-path="url(#00221bf383)"><g clip-path="url(#bf0db10776)"><path fill="#fdd9b0" d="M 0.542969 0.257812 L 50.445312 0.257812 L 50.445312 50.160156 L 0.542969 50.160156 Z M 0.542969 0.257812 " fill-opacity="1" fill-rule="nonzero"/></g></g></g></g></g></g><g clip-path="url(#0b67ea8286)"><g clip-path="url(#36af012a06)"><g transform="matrix(1, 0, 0, 1, 90, 159)"><g clip-path="url(#1974d345d1)"><g clip-path="url(#bd9902c85f)"><g clip-path="url(#467c6d8f9c)"><path fill="#fdfcfc" d="M 0.292969 0.316406 L 56.660156 0.316406 L 56.660156 56.683594 L 0.292969 56.683594 Z M 0.292969 0.316406 " fill-opacity="1" fill-rule="nonzero"/></g></g></g></g></g></g><g clip-path="url(#407595a061)"><g clip-path="url(#fe07df6290)"><g transform="matrix(1, 0, 0, 1, 93, 159)"><g clip-path="url(#49842e9875)"><g clip-path="url(#25a33a6c8f)"><g clip-path="url(#573d75ae9a)"><path fill="#000000" d="M 0.230469 0.316406 L 53.660156 0.316406 L 53.660156 53.746094 L 0.230469 53.746094 Z M 0.230469 0.316406 " fill-opacity="1" fill-rule="nonzero"/></g></g></g></g></g></g><g clip-path="url(#103eafadc6)"><g clip-path="url(#c834f7dea2)"><g transform="matrix(1, 0, 0, 1, 230, 159)"><g clip-path="url(#8eb4891d28)"><g clip-path="url(#0b7e657adc)"><g clip-path="url(#fd6b0085b7)"><path fill="#fdfcfc" d="M 0.292969 0.316406 L 56.660156 0.316406 L 56.660156 56.683594 L 0.292969 56.683594 Z M 0.292969 0.316406 " fill-opacity="1" fill-rule="nonzero"/></g></g></g></g></g></g><g clip-path="url(#982af0fe1d)"><g clip-path="url(#378ffeec40)"><g transform="matrix(1, 0, 0, 1, 230, 159)"><g clip-path="url(#8058df055f)"><g clip-path="url(#525575b996)"><g clip-path="url(#24c2f16ffd)"><path fill="#000000" d="M 0.292969 0.316406 L 53.722656 0.316406 L 53.722656 53.746094 L 0.292969 53.746094 Z M 0.292969 0.316406 " fill-opacity="1" fill-rule="nonzero"/></g></g></g></g></g></g><path stroke-linecap="butt" transform="matrix(0.75, 0.000000000000000453, -0.000000000000000453, 0.75, 152.185293, 248.158285)" fill="none" stroke-linejoin="miter" d="M -0.00226554 10.002496 L 94.174824 10.002496 " stroke="#000000" stroke-width="20" stroke-opacity="1" stroke-miterlimit="4"/><g clip-path="url(#f9fcb6d67e)"><g clip-path="url(#1e17180a07)"><g transform="matrix(1, 0, 0, 1, 215, 248)"><g clip-path="url(#5ca0fd83d6)"><g clip-path="url(#118cd0eb99)"><g clip-path="url(#1db453fa6a)"><path fill="#000000" d="M 0.335938 0.179688 L 15.292969 0.179688 L 15.292969 15.136719 L 0.335938 15.136719 Z M 0.335938 0.179688 " fill-opacity="1" fill-rule="nonzero"/></g></g></g></g></g></g><g clip-path="url(#bd85eebef0)"><g clip-path="url(#d80a4b8459)"><g transform="matrix(1, 0, 0, 1, 144, 248)"><g clip-path="url(#9068c390c4)"><g clip-path="url(#7e70497b7a)"><g clip-path="url(#3ff55b2106)"><path fill="#000000" d="M 0.707031 0.179688 L 15.664062 0.179688 L 15.664062 15.136719 L 0.707031 15.136719 Z M 0.707031 0.179688 " fill-opacity="1" fill-rule="nonzero"/></g></g></g></g></g></g></svg>